<svg width="13" height="12" viewBox="0 0 13 12" fill="none" xmlns="http://www.w3.org/2000/svg">
<path d="M3.6875 0.320312L0.40625 1.96094V11.6252H12.5938V3.18766H6.96875V1.96094L3.6875 0.320312ZM3.6875 1.3675L6.03125 2.53937V10.6877H1.34375V2.53937L3.6875 1.3675ZM2.28125 3.18766V4.12516H3.21875V3.18766H2.28125ZM4.15625 3.18766V4.12516H5.09375V3.18766H4.15625ZM6.96875 4.12516H11.6562V10.6877H6.96875V4.12516ZM2.28125 5.06266V6.00016H3.21875V5.06266H2.28125ZM4.15625 5.06266V6.00016H5.09375V5.06266H4.15625ZM7.90625 5.06266V6.00016H8.84375V5.06266H7.90625ZM9.78125 5.06266V6.00016H10.7188V5.06266H9.78125ZM2.28125 6.93766V7.87516H3.21875V6.93766H2.28125ZM4.15625 6.93766V7.87516H5.09375V6.93766H4.15625ZM7.90625 6.93766V7.87516H8.84375V6.93766H7.90625ZM9.78125 6.93766V7.87516H10.7188V6.93766H9.78125ZM2.28125 8.81266V9.75016H3.21875V8.81266H2.28125ZM4.15625 8.81266V9.75016H5.09375V8.81266H4.15625ZM7.90625 8.81266V9.75016H8.84375V8.81266H7.90625ZM9.78125 8.81266V9.75016H10.7188V8.81266H9.78125Z" fill="#EDC59A"/>
</svg>
